<?xml version="1.0" encoding="utf-8"?>
<!DOCTYPE svg PUBLIC "-//W3C//DTD SVG 1.1//EN" "http://www.w3.org/Graphics/SVG/1.1/DTD/svg11.dtd">
<svg version="1.1" baseProfile="full" width="116" height="116" viewBox="0 0 116 116" xmlns="http://www.w3.org/2000/svg" xmlns:xlink="http://www.w3.org/1999/xlink" xmlns:ev="http://www.w3.org/2001/xml-events">
<rect x="0" y="0" width="116" height="116" fill="rgb(255,255,255)" fill-opacity="1.00" />
<defs><rect id="p" width="4" height="4" /></defs>
<g fill="rgb(0,0,0)" fill-opacity="1.00">
<use x="16" y="16" xlink:href="#p" />
<use x="20" y="16" xlink:href="#p" />
<use x="24" y="16" xlink:href="#p" />
<use x="28" y="16" xlink:href="#p" />
<use x="32" y="16" xlink:href="#p" />
<use x="36" y="16" xlink:href="#p" />
<use x="40" y="16" xlink:href="#p" />
<use x="48" y="16" xlink:href="#p" />
<use x="52" y="16" xlink:href="#p" />
<use x="60" y="16" xlink:href="#p" />
<use x="64" y="16" xlink:href="#p" />
<use x="72" y="16" xlink:href="#p" />
<use x="76" y="16" xlink:href="#p" />
<use x="80" y="16" xlink:href="#p" />
<use x="84" y="16" xlink:href="#p" />
<use x="88" y="16" xlink:href="#p" />
<use x="92" y="16" xlink:href="#p" />
<use x="96" y="16" xlink:href="#p" />
<use x="16" y="20" xlink:href="#p" />
<use x="40" y="20" xlink:href="#p" />
<use x="52" y="20" xlink:href="#p" />
<use x="56" y="20" xlink:href="#p" />
<use x="60" y="20" xlink:href="#p" />
<use x="72" y="20" xlink:href="#p" />
<use x="96" y="20" xlink:href="#p" />
<use x="16" y="24" xlink:href="#p" />
<use x="24" y="24" xlink:href="#p" />
<use x="28" y="24" xlink:href="#p" />
<use x="32" y="24" xlink:href="#p" />
<use x="40" y="24" xlink:href="#p" />
<use x="52" y="24" xlink:href="#p" />
<use x="72" y="24" xlink:href="#p" />
<use x="80" y="24" xlink:href="#p" />
<use x="84" y="24" xlink:href="#p" />
<use x="88" y="24" xlink:href="#p" />
<use x="96" y="24" xlink:href="#p" />
<use x="16" y="28" xlink:href="#p" />
<use x="24" y="28" xlink:href="#p" />
<use x="28" y="28" xlink:href="#p" />
<use x="32" y="28" xlink:href="#p" />
<use x="40" y="28" xlink:href="#p" />
<use x="48" y="28" xlink:href="#p" />
<use x="56" y="28" xlink:href="#p" />
<use x="60" y="28" xlink:href="#p" />
<use x="64" y="28" xlink:href="#p" />
<use x="72" y="28" xlink:href="#p" />
<use x="80" y="28" xlink:href="#p" />
<use x="84" y="28" xlink:href="#p" />
<use x="88" y="28" xlink:href="#p" />
<use x="96" y="28" xlink:href="#p" />
<use x="16" y="32" xlink:href="#p" />
<use x="24" y="32" xlink:href="#p" />
<use x="28" y="32" xlink:href="#p" />
<use x="32" y="32" xlink:href="#p" />
<use x="40" y="32" xlink:href="#p" />
<use x="52" y="32" xlink:href="#p" />
<use x="56" y="32" xlink:href="#p" />
<use x="60" y="32" xlink:href="#p" />
<use x="64" y="32" xlink:href="#p" />
<use x="72" y="32" xlink:href="#p" />
<use x="80" y="32" xlink:href="#p" />
<use x="84" y="32" xlink:href="#p" />
<use x="88" y="32" xlink:href="#p" />
<use x="96" y="32" xlink:href="#p" />
<use x="16" y="36" xlink:href="#p" />
<use x="40" y="36" xlink:href="#p" />
<use x="52" y="36" xlink:href="#p" />
<use x="56" y="36" xlink:href="#p" />
<use x="60" y="36" xlink:href="#p" />
<use x="64" y="36" xlink:href="#p" />
<use x="72" y="36" xlink:href="#p" />
<use x="96" y="36" xlink:href="#p" />
<use x="16" y="40" xlink:href="#p" />
<use x="20" y="40" xlink:href="#p" />
<use x="24" y="40" xlink:href="#p" />
<use x="28" y="40" xlink:href="#p" />
<use x="32" y="40" xlink:href="#p" />
<use x="36" y="40" xlink:href="#p" />
<use x="40" y="40" xlink:href="#p" />
<use x="48" y="40" xlink:href="#p" />
<use x="56" y="40" xlink:href="#p" />
<use x="64" y="40" xlink:href="#p" />
<use x="72" y="40" xlink:href="#p" />
<use x="76" y="40" xlink:href="#p" />
<use x="80" y="40" xlink:href="#p" />
<use x="84" y="40" xlink:href="#p" />
<use x="88" y="40" xlink:href="#p" />
<use x="92" y="40" xlink:href="#p" />
<use x="96" y="40" xlink:href="#p" />
<use x="56" y="44" xlink:href="#p" />
<use x="24" y="48" xlink:href="#p" />
<use x="32" y="48" xlink:href="#p" />
<use x="36" y="48" xlink:href="#p" />
<use x="40" y="48" xlink:href="#p" />
<use x="48" y="48" xlink:href="#p" />
<use x="52" y="48" xlink:href="#p" />
<use x="56" y="48" xlink:href="#p" />
<use x="60" y="48" xlink:href="#p" />
<use x="64" y="48" xlink:href="#p" />
<use x="68" y="48" xlink:href="#p" />
<use x="84" y="48" xlink:href="#p" />
<use x="96" y="48" xlink:href="#p" />
<use x="16" y="52" xlink:href="#p" />
<use x="44" y="52" xlink:href="#p" />
<use x="52" y="52" xlink:href="#p" />
<use x="56" y="52" xlink:href="#p" />
<use x="64" y="52" xlink:href="#p" />
<use x="72" y="52" xlink:href="#p" />
<use x="84" y="52" xlink:href="#p" />
<use x="92" y="52" xlink:href="#p" />
<use x="96" y="52" xlink:href="#p" />
<use x="20" y="56" xlink:href="#p" />
<use x="28" y="56" xlink:href="#p" />
<use x="32" y="56" xlink:href="#p" />
<use x="36" y="56" xlink:href="#p" />
<use x="40" y="56" xlink:href="#p" />
<use x="48" y="56" xlink:href="#p" />
<use x="56" y="56" xlink:href="#p" />
<use x="68" y="56" xlink:href="#p" />
<use x="80" y="56" xlink:href="#p" />
<use x="88" y="56" xlink:href="#p" />
<use x="16" y="60" xlink:href="#p" />
<use x="20" y="60" xlink:href="#p" />
<use x="24" y="60" xlink:href="#p" />
<use x="28" y="60" xlink:href="#p" />
<use x="48" y="60" xlink:href="#p" />
<use x="52" y="60" xlink:href="#p" />
<use x="84" y="60" xlink:href="#p" />
<use x="92" y="60" xlink:href="#p" />
<use x="16" y="64" xlink:href="#p" />
<use x="28" y="64" xlink:href="#p" />
<use x="36" y="64" xlink:href="#p" />
<use x="40" y="64" xlink:href="#p" />
<use x="44" y="64" xlink:href="#p" />
<use x="60" y="64" xlink:href="#p" />
<use x="64" y="64" xlink:href="#p" />
<use x="68" y="64" xlink:href="#p" />
<use x="72" y="64" xlink:href="#p" />
<use x="80" y="64" xlink:href="#p" />
<use x="88" y="64" xlink:href="#p" />
<use x="96" y="64" xlink:href="#p" />
<use x="48" y="68" xlink:href="#p" />
<use x="56" y="68" xlink:href="#p" />
<use x="60" y="68" xlink:href="#p" />
<use x="76" y="68" xlink:href="#p" />
<use x="84" y="68" xlink:href="#p" />
<use x="16" y="72" xlink:href="#p" />
<use x="20" y="72" xlink:href="#p" />
<use x="24" y="72" xlink:href="#p" />
<use x="28" y="72" xlink:href="#p" />
<use x="32" y="72" xlink:href="#p" />
<use x="36" y="72" xlink:href="#p" />
<use x="40" y="72" xlink:href="#p" />
<use x="60" y="72" xlink:href="#p" />
<use x="68" y="72" xlink:href="#p" />
<use x="76" y="72" xlink:href="#p" />
<use x="88" y="72" xlink:href="#p" />
<use x="92" y="72" xlink:href="#p" />
<use x="96" y="72" xlink:href="#p" />
<use x="16" y="76" xlink:href="#p" />
<use x="40" y="76" xlink:href="#p" />
<use x="48" y="76" xlink:href="#p" />
<use x="64" y="76" xlink:href="#p" />
<use x="76" y="76" xlink:href="#p" />
<use x="80" y="76" xlink:href="#p" />
<use x="84" y="76" xlink:href="#p" />
<use x="16" y="80" xlink:href="#p" />
<use x="24" y="80" xlink:href="#p" />
<use x="28" y="80" xlink:href="#p" />
<use x="32" y="80" xlink:href="#p" />
<use x="40" y="80" xlink:href="#p" />
<use x="48" y="80" xlink:href="#p" />
<use x="52" y="80" xlink:href="#p" />
<use x="60" y="80" xlink:href="#p" />
<use x="68" y="80" xlink:href="#p" />
<use x="72" y="80" xlink:href="#p" />
<use x="76" y="80" xlink:href="#p" />
<use x="88" y="80" xlink:href="#p" />
<use x="96" y="80" xlink:href="#p" />
<use x="16" y="84" xlink:href="#p" />
<use x="24" y="84" xlink:href="#p" />
<use x="28" y="84" xlink:href="#p" />
<use x="32" y="84" xlink:href="#p" />
<use x="40" y="84" xlink:href="#p" />
<use x="52" y="84" xlink:href="#p" />
<use x="56" y="84" xlink:href="#p" />
<use x="68" y="84" xlink:href="#p" />
<use x="72" y="84" xlink:href="#p" />
<use x="88" y="84" xlink:href="#p" />
<use x="92" y="84" xlink:href="#p" />
<use x="16" y="88" xlink:href="#p" />
<use x="24" y="88" xlink:href="#p" />
<use x="28" y="88" xlink:href="#p" />
<use x="32" y="88" xlink:href="#p" />
<use x="40" y="88" xlink:href="#p" />
<use x="48" y="88" xlink:href="#p" />
<use x="52" y="88" xlink:href="#p" />
<use x="56" y="88" xlink:href="#p" />
<use x="60" y="88" xlink:href="#p" />
<use x="64" y="88" xlink:href="#p" />
<use x="80" y="88" xlink:href="#p" />
<use x="96" y="88" xlink:href="#p" />
<use x="16" y="92" xlink:href="#p" />
<use x="40" y="92" xlink:href="#p" />
<use x="52" y="92" xlink:href="#p" />
<use x="64" y="92" xlink:href="#p" />
<use x="68" y="92" xlink:href="#p" />
<use x="88" y="92" xlink:href="#p" />
<use x="16" y="96" xlink:href="#p" />
<use x="20" y="96" xlink:href="#p" />
<use x="24" y="96" xlink:href="#p" />
<use x="28" y="96" xlink:href="#p" />
<use x="32" y="96" xlink:href="#p" />
<use x="36" y="96" xlink:href="#p" />
<use x="40" y="96" xlink:href="#p" />
<use x="52" y="96" xlink:href="#p" />
<use x="56" y="96" xlink:href="#p" />
<use x="60" y="96" xlink:href="#p" />
<use x="64" y="96" xlink:href="#p" />
<use x="80" y="96" xlink:href="#p" />
<use x="88" y="96" xlink:href="#p" />
<use x="96" y="96" xlink:href="#p" />
</g>
</svg>